# xmcd
#
# Track frame offsets: 
#        150
#        23627
#        46125
#        60178
#        75247
#        93964
#        128778
#        159594
#        177951
#
# Disc length: 2578 seconds
#
# Revision: 0
# Processed by: cddbd v1.5.2PL0 Copyright (c) Steve Scherf et al.
# Submitted via: ExactAudioCopy v0.99pb4
#
DISCID=590a1009
DTITLE=Соломон Берк - Возможен Шанс (AnTrop П91 00006)
DYEAR=1991
DGENRE=R&B
TTITLE0=Любовь покупает любовь (Пол Келли)
TTITLE1=Собираюсь достать немного денег (Соломон Берк)
TTITLE2=Давай это будешь ты и я (Пол Келли)
TTITLE3=Любовь - единственное, что имеет смысл (Ден Пен и Спунер Олдхе
TTITLE3=м)
TTITLE4=Что мужчина не сделает для женщины! (Джимми Льюис)
TTITLE5=Возможен шанс (Сэм Кук)
TTITLE6=Мы снова идем сюда (Соломон Берк)
TTITLE7=Лучше не будет (Ден Пен и Спунер Олдхем)
TTITLE8=Когда мужчина любит женщину (Келвин Льюис и Эндрю Райт)
EXTD=
EXTT0=
EXTT1=
EXTT2=
EXTT3=
EXTT4=
EXTT5=
EXTT6=
EXTT7=
EXTT8=
PLAYORDER=
